<mxfile host="app.diagrams.net" agent="Mozilla/5.0 (X11; Linux x86_64; rv:131.0) Gecko/20100101 Firefox/131.0" version="24.7.17">
  <diagram id="C5RBs43oDa-KdzZeNtuy" name="Page-1">
    <mxGraphModel dx="1931" dy="1260" grid="1" gridSize="10" guides="1" tooltips="1" connect="1" arrows="1" fold="1" page="0" pageScale="1" pageWidth="827" pageHeight="1169" background="none" math="0" shadow="0">
      <root>
        <mxCell id="WIyWlLk6GJQsqaUBKTNV-0" />
        <mxCell id="WIyWlLk6GJQsqaUBKTNV-1" parent="WIyWlLk6GJQsqaUBKTNV-0" />
        <mxCell id="iCppx25vLzTh-i1bHOCO-2" style="edgeStyle=orthogonalEdgeStyle;rounded=1;orthogonalLoop=1;jettySize=auto;html=1;entryX=0.5;entryY=0;entryDx=0;entryDy=0;labelBackgroundColor=none;fontColor=default;" edge="1" parent="WIyWlLk6GJQsqaUBKTNV-1" source="WIyWlLk6GJQsqaUBKTNV-3" target="iCppx25vLzTh-i1bHOCO-0">
          <mxGeometry relative="1" as="geometry" />
        </mxCell>
        <mxCell id="WIyWlLk6GJQsqaUBKTNV-3" value="User types: `yeet`" style="rounded=1;whiteSpace=wrap;html=1;fontSize=12;glass=0;strokeWidth=1;shadow=0;labelBackgroundColor=none;" parent="WIyWlLk6GJQsqaUBKTNV-1" vertex="1">
          <mxGeometry x="370" y="10" width="120" height="20" as="geometry" />
        </mxCell>
        <mxCell id="iCppx25vLzTh-i1bHOCO-3" style="edgeStyle=orthogonalEdgeStyle;rounded=1;orthogonalLoop=1;jettySize=auto;html=1;exitX=0;exitY=0.5;exitDx=0;exitDy=0;labelBackgroundColor=none;fontColor=default;" edge="1" parent="WIyWlLk6GJQsqaUBKTNV-1" source="iCppx25vLzTh-i1bHOCO-0">
          <mxGeometry relative="1" as="geometry">
            <mxPoint x="90" y="115" as="targetPoint" />
            <Array as="points">
              <mxPoint x="140" y="115" />
            </Array>
          </mxGeometry>
        </mxCell>
        <mxCell id="iCppx25vLzTh-i1bHOCO-5" style="edgeStyle=orthogonalEdgeStyle;rounded=1;orthogonalLoop=1;jettySize=auto;html=1;entryX=0.5;entryY=0;entryDx=0;entryDy=0;labelBackgroundColor=none;fontColor=default;" edge="1" parent="WIyWlLk6GJQsqaUBKTNV-1" source="iCppx25vLzTh-i1bHOCO-0" target="3H-Q56EDCr3KgP5wX1X8-17">
          <mxGeometry relative="1" as="geometry">
            <mxPoint x="739.9999999999998" y="210" as="targetPoint" />
          </mxGeometry>
        </mxCell>
        <mxCell id="iCppx25vLzTh-i1bHOCO-9" value="2" style="edgeLabel;html=1;align=center;verticalAlign=middle;resizable=0;points=[];labelBackgroundColor=none;rounded=1;" vertex="1" connectable="0" parent="iCppx25vLzTh-i1bHOCO-5">
          <mxGeometry x="-0.1115" y="-3" relative="1" as="geometry">
            <mxPoint y="-13" as="offset" />
          </mxGeometry>
        </mxCell>
        <mxCell id="3H-Q56EDCr3KgP5wX1X8-4" style="edgeStyle=orthogonalEdgeStyle;rounded=1;orthogonalLoop=1;jettySize=auto;html=1;exitX=0;exitY=1;exitDx=0;exitDy=0;labelBackgroundColor=none;fontColor=default;" edge="1" parent="WIyWlLk6GJQsqaUBKTNV-1" source="iCppx25vLzTh-i1bHOCO-0">
          <mxGeometry relative="1" as="geometry">
            <mxPoint x="170" y="190" as="targetPoint" />
          </mxGeometry>
        </mxCell>
        <mxCell id="iCppx25vLzTh-i1bHOCO-0" value="Number of Arguments" style="rhombus;whiteSpace=wrap;html=1;labelBackgroundColor=none;rounded=1;" vertex="1" parent="WIyWlLk6GJQsqaUBKTNV-1">
          <mxGeometry x="380" y="70" width="100" height="90" as="geometry" />
        </mxCell>
        <mxCell id="iCppx25vLzTh-i1bHOCO-10" value="1" style="text;html=1;align=center;verticalAlign=middle;resizable=0;points=[];autosize=1;strokeColor=none;fillColor=none;labelBackgroundColor=none;rounded=1;" vertex="1" parent="WIyWlLk6GJQsqaUBKTNV-1">
          <mxGeometry x="235" y="90" width="30" height="30" as="geometry" />
        </mxCell>
        <mxCell id="3H-Q56EDCr3KgP5wX1X8-2" value="" style="ellipse;html=1;shape=endState;labelBackgroundColor=none;rounded=1;" vertex="1" parent="WIyWlLk6GJQsqaUBKTNV-1">
          <mxGeometry x="50" y="100" width="30" height="30" as="geometry" />
        </mxCell>
        <mxCell id="3H-Q56EDCr3KgP5wX1X8-3" value="Exit" style="text;html=1;align=center;verticalAlign=middle;resizable=0;points=[];autosize=1;strokeColor=none;fillColor=none;labelBackgroundColor=none;rounded=1;" vertex="1" parent="WIyWlLk6GJQsqaUBKTNV-1">
          <mxGeometry x="40" y="68" width="40" height="30" as="geometry" />
        </mxCell>
        <mxCell id="3H-Q56EDCr3KgP5wX1X8-5" value="3" style="text;html=1;align=center;verticalAlign=middle;resizable=0;points=[];autosize=1;strokeColor=none;fillColor=none;labelBackgroundColor=none;rounded=1;" vertex="1" parent="WIyWlLk6GJQsqaUBKTNV-1">
          <mxGeometry x="275" y="140" width="30" height="30" as="geometry" />
        </mxCell>
        <mxCell id="3H-Q56EDCr3KgP5wX1X8-8" style="edgeStyle=orthogonalEdgeStyle;rounded=1;orthogonalLoop=1;jettySize=auto;html=1;entryX=0.5;entryY=0;entryDx=0;entryDy=0;labelBackgroundColor=none;fontColor=default;" edge="1" parent="WIyWlLk6GJQsqaUBKTNV-1" source="3H-Q56EDCr3KgP5wX1X8-7" target="3H-Q56EDCr3KgP5wX1X8-9">
          <mxGeometry relative="1" as="geometry">
            <mxPoint x="50" y="290" as="targetPoint" />
          </mxGeometry>
        </mxCell>
        <mxCell id="3H-Q56EDCr3KgP5wX1X8-13" style="edgeStyle=orthogonalEdgeStyle;rounded=1;orthogonalLoop=1;jettySize=auto;html=1;exitX=0;exitY=1;exitDx=0;exitDy=0;entryX=0.503;entryY=0;entryDx=0;entryDy=0;entryPerimeter=0;labelBackgroundColor=none;fontColor=default;" edge="1" parent="WIyWlLk6GJQsqaUBKTNV-1" source="3H-Q56EDCr3KgP5wX1X8-7" target="3H-Q56EDCr3KgP5wX1X8-14">
          <mxGeometry relative="1" as="geometry">
            <mxPoint x="170.31034482758628" y="370" as="targetPoint" />
            <Array as="points">
              <mxPoint x="150" y="310" />
              <mxPoint x="115" y="310" />
            </Array>
          </mxGeometry>
        </mxCell>
        <mxCell id="3H-Q56EDCr3KgP5wX1X8-15" style="edgeStyle=orthogonalEdgeStyle;rounded=1;orthogonalLoop=1;jettySize=auto;html=1;entryX=0.5;entryY=0;entryDx=0;entryDy=0;labelBackgroundColor=none;fontColor=default;" edge="1" parent="WIyWlLk6GJQsqaUBKTNV-1" source="3H-Q56EDCr3KgP5wX1X8-7" target="3H-Q56EDCr3KgP5wX1X8-16">
          <mxGeometry relative="1" as="geometry">
            <mxPoint x="300" y="300" as="targetPoint" />
          </mxGeometry>
        </mxCell>
        <mxCell id="3H-Q56EDCr3KgP5wX1X8-26" style="edgeStyle=orthogonalEdgeStyle;rounded=1;orthogonalLoop=1;jettySize=auto;html=1;exitX=1;exitY=1;exitDx=0;exitDy=0;entryX=0.5;entryY=0;entryDx=0;entryDy=0;labelBackgroundColor=none;fontColor=default;" edge="1" parent="WIyWlLk6GJQsqaUBKTNV-1" source="3H-Q56EDCr3KgP5wX1X8-7" target="3H-Q56EDCr3KgP5wX1X8-27">
          <mxGeometry relative="1" as="geometry">
            <mxPoint x="250" y="500" as="targetPoint" />
            <Array as="points">
              <mxPoint x="190" y="310" />
              <mxPoint x="235" y="310" />
            </Array>
          </mxGeometry>
        </mxCell>
        <mxCell id="3H-Q56EDCr3KgP5wX1X8-7" value="operand " style="rhombus;whiteSpace=wrap;html=1;labelBackgroundColor=none;rounded=1;" vertex="1" parent="WIyWlLk6GJQsqaUBKTNV-1">
          <mxGeometry x="130" y="190" width="80" height="80" as="geometry" />
        </mxCell>
        <mxCell id="3H-Q56EDCr3KgP5wX1X8-9" value="1.0&lt;br&gt;Init" style="whiteSpace=wrap;html=1;labelBackgroundColor=none;rounded=1;" vertex="1" parent="WIyWlLk6GJQsqaUBKTNV-1">
          <mxGeometry x="10" y="300" width="80" height="30" as="geometry" />
        </mxCell>
        <mxCell id="3H-Q56EDCr3KgP5wX1X8-14" value="&lt;div&gt;2.0&lt;/div&gt;&lt;div&gt;Add&lt;br&gt;&lt;/div&gt;" style="whiteSpace=wrap;html=1;labelBackgroundColor=none;rounded=1;" vertex="1" parent="WIyWlLk6GJQsqaUBKTNV-1">
          <mxGeometry x="70" y="360" width="90" height="30" as="geometry" />
        </mxCell>
        <mxCell id="3H-Q56EDCr3KgP5wX1X8-16" value="&lt;div&gt;3.0&lt;/div&gt;&lt;div&gt;pull&lt;br&gt;&lt;/div&gt;" style="whiteSpace=wrap;html=1;labelBackgroundColor=none;rounded=1;" vertex="1" parent="WIyWlLk6GJQsqaUBKTNV-1">
          <mxGeometry x="260" y="270" width="95" height="30" as="geometry" />
        </mxCell>
        <mxCell id="3H-Q56EDCr3KgP5wX1X8-18" style="edgeStyle=orthogonalEdgeStyle;rounded=1;orthogonalLoop=1;jettySize=auto;html=1;entryX=0.5;entryY=0;entryDx=0;entryDy=0;labelBackgroundColor=none;fontColor=default;" edge="1" parent="WIyWlLk6GJQsqaUBKTNV-1" source="3H-Q56EDCr3KgP5wX1X8-17" target="3H-Q56EDCr3KgP5wX1X8-21">
          <mxGeometry relative="1" as="geometry">
            <mxPoint x="479.9999999999998" y="310" as="targetPoint" />
          </mxGeometry>
        </mxCell>
        <mxCell id="3H-Q56EDCr3KgP5wX1X8-19" style="edgeStyle=orthogonalEdgeStyle;rounded=1;orthogonalLoop=1;jettySize=auto;html=1;entryX=0.5;entryY=0;entryDx=0;entryDy=0;labelBackgroundColor=none;fontColor=default;" edge="1" parent="WIyWlLk6GJQsqaUBKTNV-1" source="3H-Q56EDCr3KgP5wX1X8-17" target="3H-Q56EDCr3KgP5wX1X8-22">
          <mxGeometry relative="1" as="geometry">
            <mxPoint x="590" y="360" as="targetPoint" />
          </mxGeometry>
        </mxCell>
        <mxCell id="3H-Q56EDCr3KgP5wX1X8-20" style="edgeStyle=orthogonalEdgeStyle;rounded=1;orthogonalLoop=1;jettySize=auto;html=1;entryX=0.426;entryY=-0.03;entryDx=0;entryDy=0;entryPerimeter=0;labelBackgroundColor=none;fontColor=default;" edge="1" parent="WIyWlLk6GJQsqaUBKTNV-1" source="3H-Q56EDCr3KgP5wX1X8-17" target="3H-Q56EDCr3KgP5wX1X8-23">
          <mxGeometry relative="1" as="geometry">
            <mxPoint x="700" y="290" as="targetPoint" />
          </mxGeometry>
        </mxCell>
        <mxCell id="3H-Q56EDCr3KgP5wX1X8-17" value="operand " style="rhombus;whiteSpace=wrap;html=1;labelBackgroundColor=none;rounded=1;" vertex="1" parent="WIyWlLk6GJQsqaUBKTNV-1">
          <mxGeometry x="550" y="180" width="80" height="80" as="geometry" />
        </mxCell>
        <mxCell id="3H-Q56EDCr3KgP5wX1X8-21" value="&lt;div&gt;4.0 &lt;br&gt;&lt;/div&gt;&lt;div&gt;Status&lt;br&gt;&lt;/div&gt;" style="whiteSpace=wrap;html=1;labelBackgroundColor=none;rounded=1;" vertex="1" parent="WIyWlLk6GJQsqaUBKTNV-1">
          <mxGeometry x="420" y="300" width="80" height="30" as="geometry" />
        </mxCell>
        <mxCell id="3H-Q56EDCr3KgP5wX1X8-22" value="&lt;div&gt;5.0&lt;/div&gt;&lt;div&gt;commit&lt;br&gt;&lt;/div&gt;" style="whiteSpace=wrap;html=1;labelBackgroundColor=none;rounded=1;" vertex="1" parent="WIyWlLk6GJQsqaUBKTNV-1">
          <mxGeometry x="550" y="360" width="80" height="30" as="geometry" />
        </mxCell>
        <mxCell id="3H-Q56EDCr3KgP5wX1X8-23" value="&lt;div&gt;6.0&lt;/div&gt;&lt;div&gt;push&lt;br&gt;&lt;/div&gt;" style="whiteSpace=wrap;html=1;labelBackgroundColor=none;rounded=1;" vertex="1" parent="WIyWlLk6GJQsqaUBKTNV-1">
          <mxGeometry x="670" y="300" width="80" height="30" as="geometry" />
        </mxCell>
        <mxCell id="3H-Q56EDCr3KgP5wX1X8-27" value="&lt;div&gt;7.0&lt;/div&gt;&lt;div&gt;Diffs&lt;br&gt;&lt;/div&gt;" style="whiteSpace=wrap;html=1;labelBackgroundColor=none;rounded=1;" vertex="1" parent="WIyWlLk6GJQsqaUBKTNV-1">
          <mxGeometry x="185" y="360" width="90" height="30" as="geometry" />
        </mxCell>
        <mxCell id="3H-Q56EDCr3KgP5wX1X8-29" style="edgeStyle=orthogonalEdgeStyle;rounded=1;orthogonalLoop=1;jettySize=auto;html=1;entryX=0.5;entryY=0;entryDx=0;entryDy=0;labelBackgroundColor=none;fontColor=default;" edge="1" parent="WIyWlLk6GJQsqaUBKTNV-1" source="3H-Q56EDCr3KgP5wX1X8-28" target="3H-Q56EDCr3KgP5wX1X8-30">
          <mxGeometry relative="1" as="geometry">
            <mxPoint x="1260" y="16" as="targetPoint" />
          </mxGeometry>
        </mxCell>
        <mxCell id="3H-Q56EDCr3KgP5wX1X8-28" value="&lt;font style=&quot;font-size: 48px;&quot;&gt;1.0&lt;/font&gt;" style="whiteSpace=wrap;html=1;labelBackgroundColor=none;rounded=1;" vertex="1" parent="WIyWlLk6GJQsqaUBKTNV-1">
          <mxGeometry x="1200" y="-104" width="120" height="60" as="geometry" />
        </mxCell>
        <mxCell id="3H-Q56EDCr3KgP5wX1X8-37" value="" style="edgeStyle=orthogonalEdgeStyle;rounded=1;orthogonalLoop=1;jettySize=auto;html=1;" edge="1" parent="WIyWlLk6GJQsqaUBKTNV-1" source="3H-Q56EDCr3KgP5wX1X8-30">
          <mxGeometry relative="1" as="geometry">
            <mxPoint x="1260" y="96" as="targetPoint" />
          </mxGeometry>
        </mxCell>
        <mxCell id="3H-Q56EDCr3KgP5wX1X8-30" value="&lt;font style=&quot;font-size: 14px;&quot;&gt;Init&lt;/font&gt;" style="whiteSpace=wrap;html=1;labelBackgroundColor=none;fillColor=default;rounded=1;" vertex="1" parent="WIyWlLk6GJQsqaUBKTNV-1">
          <mxGeometry x="1220" y="16" width="80" height="24" as="geometry" />
        </mxCell>
        <mxCell id="3H-Q56EDCr3KgP5wX1X8-39" value="" style="edgeStyle=orthogonalEdgeStyle;rounded=1;orthogonalLoop=1;jettySize=auto;html=1;" edge="1" parent="WIyWlLk6GJQsqaUBKTNV-1" source="3H-Q56EDCr3KgP5wX1X8-36" target="3H-Q56EDCr3KgP5wX1X8-38">
          <mxGeometry relative="1" as="geometry" />
        </mxCell>
        <mxCell id="3H-Q56EDCr3KgP5wX1X8-36" value="Int main()" style="whiteSpace=wrap;html=1;labelBackgroundColor=none;rounded=1;" vertex="1" parent="WIyWlLk6GJQsqaUBKTNV-1">
          <mxGeometry x="1200" y="270" width="120" height="60" as="geometry" />
        </mxCell>
        <mxCell id="3H-Q56EDCr3KgP5wX1X8-41" value="" style="edgeStyle=orthogonalEdgeStyle;rounded=1;orthogonalLoop=1;jettySize=auto;html=1;" edge="1" parent="WIyWlLk6GJQsqaUBKTNV-1" source="3H-Q56EDCr3KgP5wX1X8-38" target="3H-Q56EDCr3KgP5wX1X8-40">
          <mxGeometry relative="1" as="geometry" />
        </mxCell>
        <mxCell id="3H-Q56EDCr3KgP5wX1X8-38" value="YeetInit(Current Path)" style="whiteSpace=wrap;html=1;labelBackgroundColor=none;rounded=1;" vertex="1" parent="WIyWlLk6GJQsqaUBKTNV-1">
          <mxGeometry x="1400" y="270" width="120" height="60" as="geometry" />
        </mxCell>
        <mxCell id="3H-Q56EDCr3KgP5wX1X8-45" value="" style="edgeStyle=orthogonalEdgeStyle;rounded=1;orthogonalLoop=1;jettySize=auto;html=1;" edge="1" parent="WIyWlLk6GJQsqaUBKTNV-1" source="3H-Q56EDCr3KgP5wX1X8-40" target="3H-Q56EDCr3KgP5wX1X8-44">
          <mxGeometry relative="1" as="geometry" />
        </mxCell>
        <mxCell id="3H-Q56EDCr3KgP5wX1X8-40" value="Create The Path to &lt;i&gt;.yeet&lt;/i&gt; folder" style="whiteSpace=wrap;html=1;labelBackgroundColor=none;rounded=1;" vertex="1" parent="WIyWlLk6GJQsqaUBKTNV-1">
          <mxGeometry x="1600" y="270" width="120" height="60" as="geometry" />
        </mxCell>
        <mxCell id="3H-Q56EDCr3KgP5wX1X8-47" value="" style="edgeStyle=orthogonalEdgeStyle;rounded=1;orthogonalLoop=1;jettySize=auto;html=1;" edge="1" parent="WIyWlLk6GJQsqaUBKTNV-1" source="3H-Q56EDCr3KgP5wX1X8-44" target="3H-Q56EDCr3KgP5wX1X8-46">
          <mxGeometry relative="1" as="geometry" />
        </mxCell>
        <mxCell id="3H-Q56EDCr3KgP5wX1X8-44" value="Create &lt;i&gt;Dir&lt;/i&gt; like the &lt;i&gt;objects, refs, refs/head, refs/tags&lt;/i&gt;" style="whiteSpace=wrap;html=1;labelBackgroundColor=none;rounded=1;" vertex="1" parent="WIyWlLk6GJQsqaUBKTNV-1">
          <mxGeometry x="1600" y="410" width="120" height="60" as="geometry" />
        </mxCell>
        <mxCell id="3H-Q56EDCr3KgP5wX1X8-49" value="" style="edgeStyle=orthogonalEdgeStyle;rounded=1;orthogonalLoop=1;jettySize=auto;html=1;" edge="1" parent="WIyWlLk6GJQsqaUBKTNV-1" source="3H-Q56EDCr3KgP5wX1X8-46" target="3H-Q56EDCr3KgP5wX1X8-48">
          <mxGeometry relative="1" as="geometry" />
        </mxCell>
        <mxCell id="3H-Q56EDCr3KgP5wX1X8-46" value="Create &lt;i&gt;HEAD&lt;/i&gt; file and add dummy data to it" style="whiteSpace=wrap;html=1;labelBackgroundColor=none;rounded=1;" vertex="1" parent="WIyWlLk6GJQsqaUBKTNV-1">
          <mxGeometry x="1400" y="410" width="120" height="60" as="geometry" />
        </mxCell>
        <mxCell id="3H-Q56EDCr3KgP5wX1X8-51" value="" style="edgeStyle=orthogonalEdgeStyle;rounded=1;orthogonalLoop=1;jettySize=auto;html=1;" edge="1" parent="WIyWlLk6GJQsqaUBKTNV-1" source="3H-Q56EDCr3KgP5wX1X8-48" target="3H-Q56EDCr3KgP5wX1X8-50">
          <mxGeometry relative="1" as="geometry" />
        </mxCell>
        <mxCell id="3H-Q56EDCr3KgP5wX1X8-48" value="Create a &lt;i&gt;Description&lt;/i&gt; file and add the description of the repo there" style="whiteSpace=wrap;html=1;labelBackgroundColor=none;rounded=1;" vertex="1" parent="WIyWlLk6GJQsqaUBKTNV-1">
          <mxGeometry x="1200" y="410" width="120" height="60" as="geometry" />
        </mxCell>
        <mxCell id="3H-Q56EDCr3KgP5wX1X8-50" value="Create a config file which stores the user data from the system" style="whiteSpace=wrap;html=1;labelBackgroundColor=none;rounded=1;fillColor=#f8cecc;strokeColor=#b85450;" vertex="1" parent="WIyWlLk6GJQsqaUBKTNV-1">
          <mxGeometry x="1200" y="550" width="120" height="60" as="geometry" />
        </mxCell>
        <mxCell id="3H-Q56EDCr3KgP5wX1X8-53" value="" style="edgeStyle=orthogonalEdgeStyle;rounded=1;orthogonalLoop=1;jettySize=auto;html=1;" edge="1" parent="WIyWlLk6GJQsqaUBKTNV-1" source="3H-Q56EDCr3KgP5wX1X8-52" target="3H-Q56EDCr3KgP5wX1X8-36">
          <mxGeometry relative="1" as="geometry" />
        </mxCell>
        <mxCell id="3H-Q56EDCr3KgP5wX1X8-55" value="" style="edgeStyle=orthogonalEdgeStyle;rounded=1;orthogonalLoop=1;jettySize=auto;html=1;" edge="1" parent="WIyWlLk6GJQsqaUBKTNV-1" source="3H-Q56EDCr3KgP5wX1X8-52">
          <mxGeometry relative="1" as="geometry">
            <mxPoint x="1360" y="138" as="targetPoint" />
          </mxGeometry>
        </mxCell>
        <mxCell id="3H-Q56EDCr3KgP5wX1X8-52" value="argument" style="rhombus;whiteSpace=wrap;html=1;rounded=1;" vertex="1" parent="WIyWlLk6GJQsqaUBKTNV-1">
          <mxGeometry x="1220" y="98" width="80" height="80" as="geometry" />
        </mxCell>
        <mxCell id="3H-Q56EDCr3KgP5wX1X8-56" value="." style="text;html=1;align=center;verticalAlign=middle;resizable=0;points=[];autosize=1;strokeColor=none;fillColor=none;" vertex="1" parent="WIyWlLk6GJQsqaUBKTNV-1">
          <mxGeometry x="1225" y="198" width="30" height="30" as="geometry" />
        </mxCell>
        <mxCell id="3H-Q56EDCr3KgP5wX1X8-57" value="a path" style="text;html=1;align=center;verticalAlign=middle;resizable=0;points=[];autosize=1;strokeColor=none;fillColor=none;" vertex="1" parent="WIyWlLk6GJQsqaUBKTNV-1">
          <mxGeometry x="1300" y="108" width="60" height="30" as="geometry" />
        </mxCell>
        <mxCell id="3H-Q56EDCr3KgP5wX1X8-58" value="" style="ellipse;html=1;shape=endState;labelBackgroundColor=none;rounded=1;" vertex="1" parent="WIyWlLk6GJQsqaUBKTNV-1">
          <mxGeometry x="1370" y="120" width="30" height="30" as="geometry" />
        </mxCell>
        <mxCell id="3H-Q56EDCr3KgP5wX1X8-59" value="for now exit" style="text;html=1;align=center;verticalAlign=middle;resizable=0;points=[];autosize=1;strokeColor=none;fillColor=none;" vertex="1" parent="WIyWlLk6GJQsqaUBKTNV-1">
          <mxGeometry x="1350" y="158" width="80" height="30" as="geometry" />
        </mxCell>
        <mxCell id="3H-Q56EDCr3KgP5wX1X8-60" value="&lt;font style=&quot;font-size: 48px;&quot;&gt;2.0&lt;/font&gt;" style="whiteSpace=wrap;html=1;labelBackgroundColor=none;rounded=1;" vertex="1" parent="WIyWlLk6GJQsqaUBKTNV-1">
          <mxGeometry x="770" y="520" width="120" height="60" as="geometry" />
        </mxCell>
        <mxCell id="3H-Q56EDCr3KgP5wX1X8-61" value="&lt;font style=&quot;font-size: 48px;&quot;&gt;3.0&lt;/font&gt;" style="whiteSpace=wrap;html=1;labelBackgroundColor=none;rounded=1;" vertex="1" parent="WIyWlLk6GJQsqaUBKTNV-1">
          <mxGeometry x="460" y="520" width="120" height="60" as="geometry" />
        </mxCell>
        <mxCell id="3H-Q56EDCr3KgP5wX1X8-63" value="&lt;font style=&quot;font-size: 48px;&quot;&gt;4.0&lt;/font&gt;" style="whiteSpace=wrap;html=1;labelBackgroundColor=none;rounded=1;" vertex="1" parent="WIyWlLk6GJQsqaUBKTNV-1">
          <mxGeometry x="140" y="520" width="120" height="60" as="geometry" />
        </mxCell>
        <mxCell id="3H-Q56EDCr3KgP5wX1X8-66" value="" style="edgeStyle=orthogonalEdgeStyle;rounded=1;orthogonalLoop=1;jettySize=auto;html=1;" edge="1" parent="WIyWlLk6GJQsqaUBKTNV-1" source="3H-Q56EDCr3KgP5wX1X8-64" target="3H-Q56EDCr3KgP5wX1X8-65">
          <mxGeometry relative="1" as="geometry" />
        </mxCell>
        <mxCell id="3H-Q56EDCr3KgP5wX1X8-64" value="&lt;font style=&quot;font-size: 48px;&quot;&gt;5.0&lt;/font&gt;" style="whiteSpace=wrap;html=1;labelBackgroundColor=none;rounded=1;" vertex="1" parent="WIyWlLk6GJQsqaUBKTNV-1">
          <mxGeometry x="-360" y="-70" width="120" height="60" as="geometry" />
        </mxCell>
        <mxCell id="3H-Q56EDCr3KgP5wX1X8-65" value="Commit" style="whiteSpace=wrap;html=1;labelBackgroundColor=none;rounded=1;" vertex="1" parent="WIyWlLk6GJQsqaUBKTNV-1">
          <mxGeometry x="-360" y="70" width="120" height="60" as="geometry" />
        </mxCell>
      </root>
    </mxGraphModel>
  </diagram>
</mxfile>
